<svg width="18" height="19" viewBox="0 0 18 19" fill="none" xmlns="http://www.w3.org/2000/svg">
<path fill-rule="evenodd" clip-rule="evenodd" d="M1.5 0.742676C0.67157 0.742676 0 1.41425 0 2.24268V17.2427C0 18.0711 0.67157 18.7427 1.5 18.7427H16.5C17.3284 18.7427 18 18.0711 18 17.2427V2.24268C18 1.41425 17.3284 0.742676 16.5 0.742676H1.5ZM5.52076 4.7454C5.52639 5.70165 4.81061 6.29087 3.96123 6.28665C3.16107 6.28243 2.46357 5.6454 2.46779 4.74681C2.47201 3.90165 3.13998 3.22243 4.00764 3.24212C4.88795 3.26181 5.52639 3.90728 5.52076 4.7454ZM9.2797 7.50444H6.75971H6.7583V16.0643H9.4217V15.8646C9.4217 15.4847 9.4214 15.1047 9.4211 14.7246C9.4203 13.7108 9.4194 12.6959 9.4246 11.6824C9.426 11.4363 9.4372 11.1804 9.5005 10.9455C9.7381 10.068 10.5271 9.50128 11.4074 9.64058C11.9727 9.72908 12.3467 10.0568 12.5042 10.5898C12.6013 10.923 12.6449 11.2816 12.6491 11.629C12.6605 12.6766 12.6589 13.7242 12.6573 14.7719C12.6567 15.1417 12.6561 15.5117 12.6561 15.8815V16.0629H15.328V15.8576C15.328 15.4056 15.3278 14.9537 15.3275 14.5018C15.327 13.3723 15.3264 12.2428 15.3294 11.1129C15.3308 10.6024 15.276 10.099 15.1508 9.60538C14.9638 8.87128 14.5771 8.26378 13.9485 7.82508C13.5027 7.51287 13.0133 7.31178 12.4663 7.28928C12.404 7.28669 12.3412 7.2833 12.2781 7.27989C11.9984 7.26477 11.7141 7.24941 11.4467 7.30334C10.6817 7.45662 10.0096 7.80678 9.5019 8.42408C9.4429 8.49488 9.3852 8.56678 9.2991 8.67408L9.2797 8.69838V7.50444ZM2.68164 16.0671H5.33242V7.51001H2.68164V16.0671Z" fill="black"/>
</svg>
