<svg width="18" height="19" viewBox="0 0 18 19" fill="none" xmlns="http://www.w3.org/2000/svg">
<path fill-rule="evenodd" clip-rule="evenodd" d="M13 0.742676H5C2.23858 0.742676 0 2.98126 0 5.74268V13.7427C0 16.5041 2.23858 18.7427 5 18.7427H13C15.7614 18.7427 18 16.5041 18 13.7427V5.74268C18 2.98126 15.7614 0.742676 13 0.742676ZM16.25 13.7427C16.2445 15.5353 14.7926 16.9872 13 16.9927H5C3.20735 16.9872 1.75549 15.5353 1.75 13.7427V5.74268C1.75549 3.95003 3.20735 2.49817 5 2.49268H13C14.7926 2.49817 16.2445 3.95003 16.25 5.74268V13.7427ZM13.75 5.99268C14.3023 5.99268 14.75 5.54496 14.75 4.99268C14.75 4.4404 14.3023 3.99268 13.75 3.99268C13.1977 3.99268 12.75 4.4404 12.75 4.99268C12.75 5.54496 13.1977 5.99268 13.75 5.99268ZM9 5.24268C6.51472 5.24268 4.5 7.2574 4.5 9.74268C4.5 12.228 6.51472 14.2427 9 14.2427C11.4853 14.2427 13.5 12.228 13.5 9.74268C13.5027 8.54838 13.0294 7.40225 12.1849 6.55776C11.3404 5.71327 10.1943 5.24002 9 5.24268ZM6.25 9.74268C6.25 11.2615 7.4812 12.4927 9 12.4927C10.5188 12.4927 11.75 11.2615 11.75 9.74268C11.75 8.22388 10.5188 6.99268 9 6.99268C7.4812 6.99268 6.25 8.22388 6.25 9.74268Z" fill="black"/>
</svg>
