<svg width="21" height="15" viewBox="0 0 21 15" fill="none" xmlns="http://www.w3.org/2000/svg">
<path d="M20.593 2.70301C20.4791 2.28041 20.2565 1.89501 19.9473 1.58518C19.6382 1.27534 19.2533 1.05187 18.831 0.937007C17.265 0.507007 11 0.500008 11 0.500008C11 0.500008 4.73596 0.493007 3.16896 0.904007C2.74689 1.02415 2.36279 1.25078 2.05353 1.56214C1.74427 1.8735 1.52025 2.25913 1.40296 2.68201C0.989964 4.24801 0.985963 7.49601 0.985963 7.49601C0.985963 7.49601 0.981963 10.76 1.39196 12.31C1.62196 13.167 2.29696 13.844 3.15496 14.075C4.73696 14.505 10.985 14.512 10.985 14.512C10.985 14.512 17.25 14.519 18.816 14.109C19.2385 13.9943 19.6237 13.7714 19.9336 13.4622C20.2435 13.153 20.4673 12.7682 20.583 12.346C20.997 10.781 21 7.53401 21 7.53401C21 7.53401 21.02 4.26901 20.593 2.70301ZM8.99596 10.505L9.00096 4.50501L14.208 7.51001L8.99596 10.505Z" fill="black"/>
</svg>
