<svg width="14" height="20" viewBox="0 0 14 20" fill="none" xmlns="http://www.w3.org/2000/svg">
<path d="M13.0899 8.22L6.08995 19.64C5.95259 19.8619 5.71095 19.9979 5.44995 20H5.24995C5.10988 19.9997 4.97608 19.9419 4.87995 19.84C4.78431 19.7377 4.737 19.5994 4.74995 19.46L5.30995 13H1.73995C1.47135 12.9971 1.22424 12.8526 1.08995 12.62L0.899949 12.29C0.804509 12.1334 0.804509 11.9366 0.899949 11.78L7.89995 0.360002C8.04104 0.131972 8.29185 -0.00483306 8.55995 1.96758e-06H8.75995C8.90002 0.000261669 9.03382 0.058121 9.12995 0.160002C9.22559 0.262276 9.2729 0.400579 9.25995 0.540002L8.68995 7H12.2599C12.5285 7.0029 12.7757 7.14737 12.9099 7.38L13.0999 7.71C13.1923 7.86847 13.1885 8.06528 13.0899 8.22Z" fill="black"/>
</svg>
