<svg width="18" height="20" viewBox="0 0 18 20" fill="none" xmlns="http://www.w3.org/2000/svg">
<path fill-rule="evenodd" clip-rule="evenodd" d="M3.00103 2.49599C3.00103 1.11749 4.1207 0 5.50187 0C6.88305 0 8.00272 1.11749 8.00272 2.49599C8.00272 3.87448 6.88305 4.99197 5.50187 4.99197C4.83861 4.99197 4.20251 4.729 3.73351 4.26091C3.26451 3.79283 3.00103 3.15796 3.00103 2.49599ZM10.8937 10.5331L9.89335 8.63611C9.39141 7.64156 8.37807 7.00705 7.26247 6.98876H3.74128C2.60763 6.98841 1.57053 7.62569 1.06038 8.63611L0.110062 10.5331C-0.0459593 10.8421 -0.0305301 11.2097 0.150839 11.5046C0.332208 11.7995 0.653652 11.9797 1.00036 11.9807H10.0034C10.3501 11.9797 10.6715 11.7995 10.8529 11.5046C11.0343 11.2097 11.0497 10.8421 10.8937 10.5331ZM15.0051 2.49599C15.0051 3.87448 13.8854 4.99197 12.5042 4.99197C11.8401 4.99464 11.2025 4.73253 10.7329 4.26386C10.2633 3.79519 10.0007 3.15878 10.0034 2.49599C10.0034 1.11749 11.1231 0 12.5042 0C13.8854 0 15.0051 1.11749 15.0051 2.49599ZM17.896 10.5331L16.9457 8.63611C16.4356 7.62569 15.3985 6.98841 14.2648 6.98876H11.2638C11.4469 7.22644 11.6076 7.48043 11.744 7.74754L12.6943 9.6345C13.056 10.3663 13.103 11.2136 12.8243 11.9807H17.0057C17.3525 11.9797 17.6739 11.7995 17.8553 11.5046C18.0366 11.2097 18.0521 10.8421 17.896 10.5331ZM10.6136 13.9775H14.5049C14.6479 13.9636 14.7902 14.0094 14.8982 14.104C15.0062 14.1985 15.0702 14.3334 15.0751 14.4767V18.3605C15.0826 18.5651 14.9616 18.7528 14.7719 18.8307C14.5822 18.9087 14.3639 18.8605 14.2248 18.7099L13.2245 17.7115C11.4726 19.6353 8.79561 20.4297 6.27522 19.7735C3.75483 19.1174 1.80763 17.1193 1.22044 14.5865C1.19264 14.4389 1.22901 14.2865 1.32047 14.1672C1.41386 14.0468 1.55807 13.9767 1.7106 13.9775H2.71094C2.92262 13.9718 3.11494 14.0998 3.1911 14.297C3.68231 16.05 5.09057 17.3971 6.86618 17.8126C8.64179 18.2281 10.5032 17.6461 11.724 16.2938L10.2635 14.8262C10.1234 14.6835 10.0819 14.4713 10.1581 14.2866C10.2343 14.1019 10.4135 13.9803 10.6136 13.9775Z" fill="black"/>
</svg>
