<svg width="53" height="57" viewBox="0 0 53 57" fill="none" xmlns="http://www.w3.org/2000/svg">
<g opacity="0.5" filter="url(#filter0_f_4103_124)">
<path fill-rule="evenodd" clip-rule="evenodd" d="M44.7912 18.4775L45.0501 18.932C45.632 19.9276 45.9393 21.0556 45.9414 22.2042V22.2097V35.6673L45.9413 35.6803C45.9316 36.8237 45.6235 37.9455 45.0465 38.9383L45.0296 38.9671L44.7681 39.3957C44.1844 40.4007 43.3349 41.2322 42.3095 41.8016L30.4882 48.5212C30.4875 48.5216 30.487 48.5219 30.4864 48.5223C29.4681 49.1025 28.3123 49.4092 27.1353 49.4111L27.1296 49.4112H26.6479C25.46 49.4191 24.2921 49.1099 23.269 48.5168L11.4018 41.7984L11.3771 41.7838C10.402 41.2083 9.58561 40.4059 9.0003 39.4473L8.97562 39.4069L8.71505 38.9494C8.13312 37.9538 7.82585 36.8259 7.82373 35.6773V35.6717V22.2216C7.82585 21.0729 8.13312 19.9449 8.71505 18.9492L8.96302 18.514L8.97404 18.4953C9.56168 17.4964 10.4057 16.6668 11.4217 16.0891L23.2593 9.36017C23.26 9.35974 23.2607 9.35931 23.2616 9.35887C24.2798 8.77877 25.4354 8.47228 26.6122 8.47022L26.6178 8.47021L27.1353 8.47022C28.3115 8.47228 29.4665 8.77844 30.4842 9.35793C30.4856 9.35868 30.4869 9.35942 30.4882 9.36017L42.3271 16.0724C43.3324 16.6447 44.1727 17.4596 44.7685 18.4401L44.7912 18.4775ZM28.8943 12.0612L40.7355 18.7748C40.9301 18.8856 41.1131 19.0133 41.2826 19.1561C41.5191 19.3554 41.7293 19.5841 41.9074 19.8367C41.9543 19.9034 41.999 19.9715 42.0414 20.0413L42.2884 20.475C42.3326 20.5497 42.3738 20.626 42.4119 20.7035C42.5469 20.9774 42.6444 21.2671 42.7022 21.565C42.7434 21.7766 42.7645 21.9925 42.7649 22.2097V35.6544C42.7597 36.2632 42.5957 36.8605 42.2884 37.3892L42.0237 37.8228C41.7214 38.3537 41.2756 38.7921 40.7355 39.0892L28.8943 45.8202C28.4296 46.0852 27.9104 46.2419 27.3766 46.2797C27.2945 46.2854 27.2122 46.2884 27.1296 46.2886H26.6355C26.2371 46.2923 25.843 46.2269 25.4707 46.097C25.263 46.0246 25.0619 45.932 24.8708 45.8202L13.012 39.1066C12.4834 38.7947 12.041 38.3598 11.7237 37.8402L11.4767 37.4065C11.1656 36.8794 11.0013 36.2811 11.0002 35.6717V22.2271C11.0006 22.0045 11.0228 21.7834 11.066 21.5667C11.1409 21.1901 11.2792 20.8268 11.4767 20.4923L11.7237 20.0587C11.769 19.9817 11.8171 19.9067 11.868 19.8337C12.1649 19.408 12.5555 19.0517 13.012 18.7922L24.8531 12.0612C25.3893 11.7555 25.998 11.594 26.6178 11.5928H27.1296C27.7495 11.594 28.3581 11.7555 28.8943 12.0612ZM37.4708 20.926L27.1296 15.0624H26.6178L16.2943 20.926L26.8826 26.9283L37.4708 20.926ZM26.8826 23.3238L31.1128 20.9257L26.8748 18.5227L22.6483 20.9234L26.8826 23.3238ZM28.6472 29.9468V41.9516L38.9707 36.088L39.2354 35.6544V23.9272L28.6472 29.9468ZM36.059 29.3403L31.8237 31.7482V36.5411L36.059 34.1355V29.3403Z" fill="url(#paint0_linear_4103_124)"/>
</g>
<path fill-rule="evenodd" clip-rule="evenodd" d="M44.3424 14.2404L44.0625 13.7405C43.7013 13.1358 43.1919 12.6334 42.5824 12.2805L29.1624 4.54049C28.5548 4.18805 27.865 4.00181 27.1624 4.00049H26.5824C25.88 4.00181 25.1901 4.18805 24.5824 4.54049L11.1624 12.3005C10.5564 12.651 10.0529 13.1544 9.70241 13.7604L9.42245 14.2605C9.06989 14.8682 8.88365 15.5579 8.88245 16.2605V31.7604C8.88365 32.463 9.06989 33.1528 9.42245 33.7605L9.70241 34.2605C10.062 34.8596 10.5634 35.3609 11.1624 35.7205L24.6024 43.4604C25.207 43.8203 25.8989 44.0072 26.6025 44.0004H27.1624C27.865 43.9992 28.5548 43.813 29.1624 43.4604L42.5824 35.7005C43.1945 35.3579 43.6998 34.8526 44.0424 34.2405L44.3424 33.7404C44.6907 33.1311 44.8766 32.4424 44.8824 31.7405V16.2405C44.8812 15.538 44.695 14.8481 44.3424 14.2404ZM26.5824 8.00045H27.1624L38.8824 14.7605L26.8824 21.6805L14.8824 14.7605L26.5824 8.00045ZM28.8824 39.0005L40.5824 32.2404L40.8824 31.7405V18.2205L28.8824 25.1604V39.0005Z" fill="#161616"/>
<path fill-rule="evenodd" clip-rule="evenodd" d="M47.1787 11.9366L47.4721 12.4606C48.1316 13.6084 48.4798 14.9088 48.4822 16.233V16.2394V31.7543L48.4821 31.7693C48.4712 33.0875 48.122 34.3809 47.468 35.5254L47.4489 35.5587L47.1525 36.0527C46.4909 37.2114 45.5282 38.17 44.3661 38.8265L30.9686 46.5734C30.9679 46.5738 30.9673 46.5742 30.9665 46.5747C29.8125 47.2436 28.5026 47.5971 27.1687 47.5994L27.1622 47.5995H26.6163C25.27 47.6085 23.9464 47.2521 22.7869 46.5683L9.33739 38.8228L9.30943 38.806C8.20423 38.1425 7.27903 37.2174 6.61567 36.1122L6.58771 36.0657L6.29239 35.5383C5.63287 34.3905 5.28463 33.09 5.28223 31.7658V31.7595V16.2531C5.28463 14.9288 5.63287 13.6283 6.29239 12.4804L6.57343 11.9787L6.58591 11.9571C7.25191 10.8056 8.20843 9.84904 9.35995 9.18304L22.7758 1.42543C22.7767 1.42493 22.7775 1.42443 22.7785 1.42393C23.9324 0.755142 25.2421 0.40179 26.5759 0.399426L26.5822 0.399414L27.1687 0.399426C28.5017 0.40179 29.8107 0.754757 30.9641 1.42285C30.9657 1.42371 30.9671 1.42456 30.9686 1.42543L44.386 9.16384C45.5254 9.8236 46.4777 10.7631 47.153 11.8935L47.1787 11.9366ZM29.1622 4.5394L42.5822 12.2794C42.8027 12.4071 43.0102 12.5543 43.2022 12.719C43.4703 12.9488 43.7085 13.2124 43.9104 13.5036C43.9635 13.5804 44.0141 13.659 44.0623 13.7394L44.3422 14.2395C44.3923 14.3256 44.4389 14.4136 44.4821 14.5029C44.6351 14.8187 44.7457 15.1527 44.8112 15.4961C44.8579 15.7401 44.8817 15.989 44.8822 16.2394V31.7394C44.8763 32.4413 44.6905 33.13 44.3422 33.7395L44.0422 34.2394C43.6996 34.8515 43.1943 35.3568 42.5822 35.6994L29.1622 43.4595C28.6355 43.765 28.0471 43.9456 27.4421 43.9892C27.3491 43.9958 27.2558 43.9992 27.1622 43.9995H26.6023C26.1507 44.0037 25.7041 43.9283 25.2821 43.7786C25.0467 43.695 24.8188 43.5884 24.6022 43.4595L11.1622 35.7195C10.5632 35.3598 10.0618 34.8585 9.70219 34.2594L9.42223 33.7594C9.06967 33.1517 8.88343 32.462 8.88223 31.7595V16.2594C8.88271 16.0028 8.90779 15.7479 8.95675 15.498C9.04171 15.0639 9.19843 14.6451 9.42223 14.2594L9.70219 13.7595C9.75355 13.6708 9.80803 13.5843 9.86575 13.5002C10.2022 13.0094 10.6449 12.5986 11.1622 12.2994L24.5822 4.5394C25.1899 4.18696 25.8797 4.00072 26.5822 3.9994H27.1622C27.8648 4.00072 28.5545 4.18696 29.1622 4.5394ZM38.8822 14.7594L27.1622 7.99936H26.5822L14.8822 14.7594L26.8822 21.6794L38.8822 14.7594ZM26.8822 17.5238L31.6765 14.7591L26.8735 11.9888L22.0834 14.7564L26.8822 17.5238ZM28.8821 25.1594V38.9994L40.5821 32.2394L40.8821 31.7394V18.2194L28.8821 25.1594ZM37.2821 24.4601L32.4821 27.2361V32.7617L37.2821 29.9884V24.4601Z" fill="url(#paint1_linear_4103_124)"/>
<path d="M26.5824 7.99866H27.1624L38.8824 14.7586L26.8824 21.6787L14.8824 14.7586L26.5824 7.99866Z" fill="white"/>
<path d="M40.5823 32.2403L28.8823 39.0003V25.1603L40.8823 18.2202V31.7403L40.5823 32.2403Z" fill="white"/>
<defs>
<filter id="filter0_f_4103_124" x="0.764907" y="1.41139" width="52.2353" height="55.0588" filterUnits="userSpaceOnUse" color-interpolation-filters="sRGB">
<feFlood flood-opacity="0" result="BackgroundImageFix"/>
<feBlend mode="normal" in="SourceGraphic" in2="BackgroundImageFix" result="shape"/>
<feGaussianBlur stdDeviation="3.52941" result="effect1_foregroundBlur_4103_124"/>
</filter>
<linearGradient id="paint0_linear_4103_124" x1="7.82373" y1="8.47021" x2="46.4792" y2="12.4063" gradientUnits="userSpaceOnUse">
<stop stop-color="#FF7448"/>
<stop offset="0.5" stop-color="#FF4848"/>
<stop offset="1" stop-color="#6248FF"/>
</linearGradient>
<linearGradient id="paint1_linear_4103_124" x1="5.28223" y1="0.399414" x2="49.1068" y2="4.78624" gradientUnits="userSpaceOnUse">
<stop stop-color="#FF7448"/>
<stop offset="0.5" stop-color="#FF4848"/>
<stop offset="1" stop-color="#6248FF"/>
</linearGradient>
</defs>
</svg>
