<svg width="76" height="16" viewBox="0 0 76 16" fill="none" xmlns="http://www.w3.org/2000/svg">
<path d="M0.342 2.02V0.579999C0.342 0.459999 0.402 0.399999 0.522 0.399999H9.63C9.75 0.399999 9.81 0.459999 9.81 0.579999V2.02C9.81 2.14 9.75 2.2 9.63 2.2H6.012V12.82C6.012 12.94 5.952 13 5.832 13H4.32C4.2 13 4.14 12.94 4.14 12.82V2.2H0.522C0.402 2.2 0.342 2.14 0.342 2.02ZM22.0559 4.234L19.3559 12.82C19.3199 12.94 19.2419 13 19.1219 13H17.5019C17.3819 13 17.3039 12.94 17.2679 12.82L15.4679 6.772L13.6679 12.82C13.6319 12.94 13.5539 13 13.4339 13H11.8139C11.6939 13 11.6159 12.94 11.5799 12.82L8.87991 4.234C8.86791 4.186 8.86191 4.138 8.86191 4.09C8.86191 4.006 8.90991 3.964 9.00591 3.964H10.5359C10.6679 3.964 10.7519 4.024 10.7879 4.144L12.5879 10.696L14.4419 4.576C14.4779 4.456 14.5439 4.396 14.6399 4.396H16.2959C16.3919 4.396 16.4579 4.456 16.4939 4.576L18.3479 10.696L20.1479 4.144C20.1839 4.024 20.2679 3.964 20.3999 3.964H21.9299C22.0259 3.964 22.0739 4.006 22.0739 4.09C22.0739 4.138 22.0679 4.186 22.0559 4.234ZM23.3506 12.82V4.144C23.3506 4.024 23.4106 3.964 23.5306 3.964H24.9346C25.0546 3.964 25.1146 4.024 25.1146 4.144V12.82C25.1146 12.94 25.0546 13 24.9346 13H23.5306C23.4106 13 23.3506 12.94 23.3506 12.82ZM23.1526 2.38V0.579999C23.1526 0.459999 23.2126 0.399999 23.3326 0.399999H25.1326C25.2526 0.399999 25.3126 0.459999 25.3126 0.579999V2.38C25.3126 2.5 25.2526 2.56 25.1326 2.56H23.3326C23.2126 2.56 23.1526 2.5 23.1526 2.38ZM30.0443 3.964H32.9063C33.0263 3.964 33.0863 4.024 33.0863 4.144V5.476C33.0863 5.596 33.0263 5.656 32.9063 5.656H30.0443V10.012C30.0443 10.996 30.4943 11.488 31.3943 11.488C31.9583 11.488 32.4983 11.392 33.0143 11.2C33.0503 11.188 33.0863 11.182 33.1223 11.182C33.2183 11.182 33.2663 11.236 33.2663 11.344V12.568C33.2663 12.736 33.2183 12.838 33.1223 12.874C32.5823 13.078 31.9523 13.18 31.2323 13.18C30.3203 13.18 29.6003 12.934 29.0723 12.442C28.5443 11.938 28.2803 11.23 28.2803 10.318V5.656H26.6963C26.5763 5.656 26.5163 5.596 26.5163 5.476V4.144C26.5163 4.024 26.5763 3.964 26.6963 3.964H28.2803V1.372C28.2803 1.252 28.3403 1.192 28.4603 1.192H29.8643C29.9843 1.192 30.0443 1.252 30.0443 1.372V3.964ZM37.6028 3.964H40.4648C40.5848 3.964 40.6448 4.024 40.6448 4.144V5.476C40.6448 5.596 40.5848 5.656 40.4648 5.656H37.6028V10.012C37.6028 10.996 38.0528 11.488 38.9528 11.488C39.5168 11.488 40.0568 11.392 40.5728 11.2C40.6088 11.188 40.6448 11.182 40.6808 11.182C40.7768 11.182 40.8248 11.236 40.8248 11.344V12.568C40.8248 12.736 40.7768 12.838 40.6808 12.874C40.1408 13.078 39.5108 13.18 38.7908 13.18C37.8788 13.18 37.1588 12.934 36.6308 12.442C36.1028 11.938 35.8388 11.23 35.8388 10.318V5.656H34.2548C34.1348 5.656 34.0748 5.596 34.0748 5.476V4.144C34.0748 4.024 34.1348 3.964 34.2548 3.964H35.8388V1.372C35.8388 1.252 35.8988 1.192 36.0188 1.192H37.4228C37.5428 1.192 37.6028 1.252 37.6028 1.372V3.964ZM46.4269 11.488C47.6389 11.488 48.4549 11.038 48.8749 10.138C48.9349 10.03 49.0189 9.976 49.1269 9.976H50.6569C50.7409 9.976 50.7829 10.018 50.7829 10.102C50.7829 10.15 50.7709 10.21 50.7469 10.282C50.0269 12.214 48.5869 13.18 46.4269 13.18C45.0829 13.18 43.9789 12.742 43.1149 11.866C42.2629 10.978 41.8369 9.85 41.8369 8.482C41.8369 7.126 42.2689 6.004 43.1329 5.116C43.9969 4.228 45.0889 3.784 46.4089 3.784C47.7889 3.784 48.8929 4.246 49.7209 5.17C50.5489 6.082 50.9629 7.204 50.9629 8.536V8.878C50.9629 8.998 50.9029 9.058 50.7829 9.058H43.7089C43.8049 9.814 44.0929 10.408 44.5729 10.84C45.0529 11.272 45.6709 11.488 46.4269 11.488ZM46.4089 5.476C45.8089 5.476 45.2629 5.644 44.7709 5.98C44.2789 6.304 43.9489 6.79 43.7809 7.438H49.0369C48.8929 6.802 48.5809 6.316 48.1009 5.98C47.6329 5.644 47.0689 5.476 46.4089 5.476ZM58.8291 4.396V5.818C58.8291 5.95 58.7811 6.016 58.6851 6.016C58.6611 6.016 58.6191 6.004 58.5591 5.98C57.8751 5.644 57.2451 5.476 56.6691 5.476C56.0571 5.476 55.5651 5.704 55.1931 6.16C54.8211 6.616 54.6351 7.27 54.6351 8.122V12.82C54.6351 12.94 54.5751 13 54.4551 13H53.0511C52.9311 13 52.8711 12.94 52.8711 12.82V4.144C52.8711 4.024 52.9311 3.964 53.0511 3.964H54.4551C54.5751 3.964 54.6351 4.024 54.6351 4.144V4.846C55.3071 4.138 56.0991 3.784 57.0111 3.784C57.5631 3.784 58.0971 3.88 58.6131 4.072C58.7571 4.132 58.8291 4.24 58.8291 4.396ZM69.4765 3.46L70.3585 2.542C70.4185 2.482 70.4845 2.452 70.5565 2.452C70.6165 2.452 70.6705 2.476 70.7185 2.524L74.4625 6.286C74.5825 6.406 74.6425 6.532 74.6425 6.664C74.6425 6.796 74.5825 6.922 74.4625 7.042L70.7185 10.804C70.6705 10.852 70.6165 10.876 70.5565 10.876C70.4845 10.876 70.4185 10.846 70.3585 10.786L69.4765 9.868C69.4285 9.82 69.4045 9.772 69.4045 9.724C69.4045 9.676 69.4345 9.622 69.4945 9.562L71.5825 7.51H65.2285C65.1085 7.51 65.0485 7.45 65.0485 7.33V5.998C65.0485 5.878 65.1085 5.818 65.2285 5.818H71.5825L69.4945 3.766C69.4345 3.706 69.4045 3.652 69.4045 3.604C69.4045 3.556 69.4285 3.508 69.4765 3.46Z" fill="#161616"/>
<path d="M0 14.8H75.5965V15.7H0V14.8Z" fill="#161616"/>
<a href="https://twitter.com/minimalsquare">
<rect fill="black" fill-opacity="0" y="3.623" width="75.5965" height="20.754"/>
</a>
</svg>
