<svg width="83" height="16" viewBox="0 0 83 16" fill="none" xmlns="http://www.w3.org/2000/svg">
<path d="M14.85 0.579999L12.06 12.82C12.024 12.946 11.952 13 11.862 13H9.936C9.846 13 9.774 12.946 9.738 12.82L7.524 4.09L5.31 12.82C5.274 12.946 5.202 13 5.112 13H3.186C3.096 13 3.024 12.946 2.988 12.82L0.198 0.579999C0.162 0.454 0.216 0.399999 0.342 0.399999H1.944C2.07 0.399999 2.142 0.454 2.16 0.579999L4.23 10.372L6.498 1.444C6.534 1.318 6.606 1.264 6.714 1.264H8.334C8.442 1.264 8.514 1.318 8.55 1.444L10.818 10.372L12.888 0.579999C12.906 0.454 12.978 0.399999 13.104 0.399999H14.706C14.832 0.399999 14.886 0.454 14.85 0.579999ZM19.6554 11.488C20.8794 11.488 21.6534 11.092 22.1034 10.138C22.1754 9.994 22.2294 9.976 22.3554 9.976H23.8854C23.9754 9.976 24.0114 10.012 24.0114 10.102C24.0114 10.156 24.0294 10.156 23.9754 10.282C23.2014 12.316 21.7614 13.18 19.6554 13.18C16.9554 13.18 15.0654 11.2 15.0654 8.482C15.0654 5.764 16.9914 3.784 19.6374 3.784C22.5174 3.784 24.1914 5.944 24.1914 8.536V8.878C24.1914 9.004 24.1374 9.058 24.0114 9.058H16.9374C17.1354 10.57 18.1434 11.488 19.6554 11.488ZM19.6374 5.476C18.5394 5.476 17.3514 6.07 17.0094 7.438H22.2654C21.9594 6.142 20.9334 5.476 19.6374 5.476ZM26.0644 12.82V0.579999C26.0644 0.454 26.1184 0.399999 26.2444 0.399999H27.6484C27.7744 0.399999 27.8284 0.454 27.8284 0.579999V4.828C28.6024 4.198 29.4484 3.784 30.6004 3.784C33.0304 3.784 34.6684 5.62 34.6684 8.482C34.6684 11.344 33.0304 13.18 30.6004 13.18C29.4664 13.18 28.5304 12.838 27.8284 12.154V12.82C27.8284 12.946 27.7744 13 27.6484 13H26.2444C26.1184 13 26.0644 12.946 26.0644 12.82ZM27.6844 8.482C27.6844 10.246 28.7284 11.488 30.2404 11.488C31.8244 11.488 32.7964 10.264 32.7964 8.482C32.7964 6.7 31.8244 5.476 30.2404 5.476C28.7284 5.476 27.6844 6.718 27.6844 8.482ZM43.6292 10.354C43.6292 12.136 42.0812 13.18 39.8672 13.18C37.6892 13.18 36.1412 12.01 35.9972 10.138C35.9972 10.012 36.0512 9.958 36.1772 9.958H37.6892C37.7972 9.958 37.8512 10.012 37.8692 10.138C38.0312 11.092 38.8232 11.488 39.9212 11.488C41.0012 11.488 41.7572 11.2 41.7572 10.354C41.7572 9.724 41.0912 9.4 39.3452 9.112C37.1672 8.752 36.2312 7.942 36.2312 6.484C36.2312 4.594 37.9592 3.784 39.7412 3.784C41.8292 3.784 43.1972 4.9 43.3412 6.484C43.3412 6.61 43.2872 6.664 43.1612 6.664H41.6312C41.5052 6.664 41.5052 6.61 41.4512 6.484C41.2172 5.782 40.5692 5.476 39.6512 5.476C38.8412 5.476 37.9952 5.746 37.9952 6.394C37.9952 7.078 38.5532 7.402 40.3712 7.744C42.2612 8.086 43.6292 8.662 43.6292 10.354ZM45.3936 12.82V4.144C45.3936 4.018 45.4476 3.964 45.5736 3.964H46.9776C47.1036 3.964 47.1576 4.018 47.1576 4.144V12.82C47.1576 12.946 47.1036 13 46.9776 13H45.5736C45.4476 13 45.3936 12.946 45.3936 12.82ZM45.1956 2.38V0.579999C45.1956 0.454 45.2496 0.399999 45.3756 0.399999H47.1756C47.3016 0.399999 47.3556 0.454 47.3556 0.579999V2.38C47.3556 2.506 47.3016 2.56 47.1756 2.56H45.3756C45.2496 2.56 45.1956 2.506 45.1956 2.38ZM52.0872 3.964H54.9492C55.0752 3.964 55.1292 4.018 55.1292 4.144V5.476C55.1292 5.602 55.0752 5.656 54.9492 5.656H52.0872V10.012C52.0872 10.966 52.5012 11.488 53.4372 11.488C53.9952 11.488 54.4272 11.434 55.0572 11.2C55.0932 11.182 55.1292 11.182 55.1652 11.182C55.2552 11.182 55.3092 11.236 55.3092 11.344V12.568C55.3092 12.73 55.3092 12.82 55.1652 12.874C54.6432 13.072 53.9232 13.18 53.2752 13.18C51.4752 13.18 50.3232 12.172 50.3232 10.318V5.656H48.7392C48.6132 5.656 48.5592 5.602 48.5592 5.476V4.144C48.5592 4.018 48.6132 3.964 48.7392 3.964H50.3232V1.372C50.3232 1.246 50.3772 1.192 50.5032 1.192H51.9072C52.0332 1.192 52.0872 1.246 52.0872 1.372V3.964ZM60.9113 11.488C62.1353 11.488 62.9093 11.092 63.3593 10.138C63.4313 9.994 63.4853 9.976 63.6113 9.976H65.1413C65.2313 9.976 65.2673 10.012 65.2673 10.102C65.2673 10.156 65.2853 10.156 65.2313 10.282C64.4573 12.316 63.0173 13.18 60.9113 13.18C58.2113 13.18 56.3213 11.2 56.3213 8.482C56.3213 5.764 58.2473 3.784 60.8933 3.784C63.7733 3.784 65.4473 5.944 65.4473 8.536V8.878C65.4473 9.004 65.3933 9.058 65.2673 9.058H58.1933C58.3913 10.57 59.3993 11.488 60.9113 11.488ZM60.8933 5.476C59.7953 5.476 58.6073 6.07 58.2653 7.438H63.5213C63.2153 6.142 62.1893 5.476 60.8933 5.476ZM76.3671 3.46L77.2491 2.542C77.3031 2.488 77.3751 2.452 77.4471 2.452C77.5011 2.452 77.5551 2.47 77.6091 2.524L81.3531 6.286C81.4791 6.412 81.5331 6.538 81.5331 6.664C81.5331 6.79 81.4791 6.916 81.3531 7.042L77.6091 10.804C77.5551 10.858 77.5011 10.876 77.4471 10.876C77.3751 10.876 77.3031 10.84 77.2491 10.786L76.3671 9.868C76.3131 9.814 76.2951 9.778 76.2951 9.724C76.2951 9.67 76.3311 9.616 76.3851 9.562L78.4731 7.51H72.1191C71.9931 7.51 71.9391 7.456 71.9391 7.33V5.998C71.9391 5.872 71.9931 5.818 72.1191 5.818H78.4731L76.3851 3.766C76.3311 3.712 76.2951 3.658 76.2951 3.604C76.2951 3.55 76.3131 3.514 76.3671 3.46Z" fill="#161616"/>
<path d="M0 14.8H82.4871V15.7H0V14.8Z" fill="#161616"/>
<a href="https://minimal-square.com/">
<rect fill="black" fill-opacity="0" y="2.39" width="82.4871" height="23.22"/>
</a>
</svg>
